<svg height="63.03156014079534" version="1.1" width="80.3979974365234" xmlns="http://www.w3.org/2000/svg" xmlns:xlink="http://www.w3.org/1999/xlink" style="overflow: hidden; position: relative; left: -0.600006px; top: -0.400009px;" viewBox="222.30100128173828 186.9995417818121 160.3979974365234 123.03156014079534" preserveAspectRatio="xMinYMin" id="main_svg"><desc style="-webkit-tap-highlight-color: rgba(0, 0, 0, 0);">Created with Logotizer</desc><defs style="-webkit-tap-highlight-color: rgba(0, 0, 0, 0);"><linearGradient id="gradient_s5xrgetkb2j5xqfs4lt8jm" x1="0.01745506492821757" y1="0" x2="0" y2="1" style="-webkit-tap-highlight-color: rgba(0, 0, 0, 0);"><stop offset="10%" stop-color="#a1daf4" stop-opacity="1" style="-webkit-tap-highlight-color: rgba(0, 0, 0, 0);"></stop><stop offset="80%" stop-color="#000000" stop-opacity="1" style="-webkit-tap-highlight-color: rgba(0, 0, 0, 0);"></stop></linearGradient></defs><path fill="#58a0c1" stroke="none" d="M-66.29,-24.77Q-66.29,-22.94,-66.94,-21.17Q-67.59,-19.39,-68.95,-17.69Q-70.32,-15.98,-72.89,-14.95Q-75.46,-13.92,-78.87,-13.92Q-80.26,-13.92,-81.51,-14.14Q-82.75,-14.35,-83.28,-14.59L-83.86,-14.78L-83.86,-4.56Q-83.86,-2.78,-82.99,-2.78Q-82.23,-2.78,-81.96,-2.47Q-81.7,-2.16,-81.7,-1.58Q-81.7,-0.82,-82.47,-0.41Q-83.23,0,-84.19,0L-89.95,0Q-90.91,0,-91.68,-0.41Q-92.45,-0.82,-92.45,-1.58Q-92.45,-2.78,-91.15,-2.78Q-90.82,-2.78,-90.53,-3.29Q-90.24,-3.79,-90.24,-4.56L-90.24,-29.33Q-90.24,-31.15,-91.15,-31.15Q-92.45,-31.15,-92.45,-32.35Q-92.45,-33.17,-91.68,-33.58Q-90.91,-33.98,-89.95,-33.98L-78.48,-33.98Q-76.56,-33.98,-75.31,-33.91Q-74.07,-33.84,-72.17,-33.34Q-70.27,-32.83,-69.15,-31.92Q-68.02,-31.01,-67.15,-29.18Q-66.29,-27.36,-66.29,-24.77M-73.06,-24.34Q-73.06,-27.89,-74.52,-29.47Q-75.99,-31.06,-80.55,-31.06Q-82.37,-31.06,-83.11,-30.77Q-83.86,-30.48,-83.86,-29.42L-83.86,-18.24Q-83.86,-17.52,-82.61,-17.16Q-81.36,-16.8,-79.73,-16.8Q-73.06,-16.8,-73.06,-24.34ZM-45.99,-21.22Q-45.99,-17.71,-48,-17.71Q-48.72,-17.71,-49.78,-18.67Q-50.83,-19.63,-51.79,-19.63Q-53.04,-19.63,-54.29,-18.46Q-55.54,-17.28,-55.54,-14.78L-55.54,-4.61Q-55.54,-2.98,-54.87,-2.98Q-53.62,-2.98,-53.62,-1.82Q-53.62,-1.01,-54.36,-0.5Q-55.11,0,-55.97,0L-61.11,0Q-63.46,0,-63.46,-1.82Q-63.46,-2.98,-62.31,-2.98Q-61.49,-2.98,-61.49,-4.61L-61.49,-18.72Q-61.49,-20.4,-62.26,-20.4Q-63.03,-20.4,-63.24,-20.69Q-63.46,-20.98,-63.46,-21.55Q-63.46,-22.37,-62.71,-22.82Q-61.97,-23.28,-61.11,-23.28L-56.93,-23.28Q-55.39,-23.28,-55.49,-20.06Q-52.13,-23.9,-49.3,-23.9Q-45.99,-23.9,-45.99,-21.22ZM-22.23,-12Q-22.23,-6.34,-25.35,-2.9Q-28.47,0.53,-33.12,0.53Q-35.62,0.53,-37.59,-0.19Q-39.55,-0.91,-40.78,-2.04Q-42,-3.17,-42.79,-4.75Q-43.59,-6.34,-43.9,-7.97Q-44.21,-9.6,-44.21,-11.38Q-44.21,-17.18,-41.23,-20.54Q-38.26,-23.9,-33.36,-23.9Q-30.39,-23.9,-28.18,-22.9Q-25.97,-21.89,-24.7,-20.16Q-23.43,-18.43,-22.83,-16.39Q-22.23,-14.35,-22.23,-12M-28.61,-10.18Q-28.61,-21.31,-33.27,-21.46Q-34.75,-21.46,-35.71,-20.81Q-36.67,-20.16,-37.11,-18.89Q-37.54,-17.62,-37.71,-16.3Q-37.87,-14.98,-37.87,-13.1Q-37.87,-1.92,-33.27,-1.92Q-28.61,-1.92,-28.61,-10.18ZM6.43,-9.36Q6.43,-4.99,2.64,-2.02Q-1.15,0.96,-7.2,0.96Q-12.63,0.96,-15.63,-0.86Q-18.63,-2.69,-18.63,-5.28Q-18.63,-10.37,-15.79,-10.37Q-15.41,-10.37,-15.1,-10.13Q-14.79,-9.89,-14.57,-9.46Q-14.35,-9.02,-14.23,-8.66Q-14.11,-8.3,-13.99,-7.75Q-13.87,-7.2,-13.83,-7.06Q-12.15,-2.06,-6.91,-2.06Q-3.17,-2.06,-1.51,-3.74Q0.14,-5.42,0.14,-7.58Q0.14,-9.02,-0.48,-10.1Q-1.11,-11.18,-1.61,-11.52Q-2.11,-11.86,-3.36,-12.62Q-5.57,-13.87,-11.86,-17.04Q-18.19,-20.35,-18.19,-25.68Q-18.19,-28.27,-17.16,-30.14Q-16.13,-32.02,-14.33,-33Q-12.53,-33.98,-10.51,-34.44Q-8.5,-34.9,-6.15,-34.9Q-2.55,-34.9,1.15,-33.65Q2.93,-33.07,3.55,-31.97Q4.17,-30.86,4.17,-28.85Q4.17,-26.98,3.53,-25.85Q2.88,-24.72,1.92,-24.72Q1.29,-24.72,0.84,-25.46Q0.38,-26.21,-0.1,-27.29Q-0.58,-28.37,-1.25,-29.45Q-1.92,-30.53,-3.34,-31.27Q-4.75,-32.02,-6.72,-32.02Q-9.46,-32.02,-10.68,-30.67Q-11.91,-29.33,-11.91,-27.31Q-11.91,-24.77,-9.75,-23.18Q-8.26,-22.08,-3.29,-19.7Q1.68,-17.33,3.5,-15.79Q5.09,-14.45,5.76,-12.98Q6.43,-11.52,6.43,-9.36ZM44.93,-1.63Q44.93,0,42.57,0L37.44,0Q35.09,0,35.09,-1.63Q35.09,-2.16,35.3,-2.42Q35.52,-2.69,36.29,-2.69Q37.05,-2.69,37.05,-4.18L37.05,-14.5Q37.05,-14.54,37.05,-15.14Q37.05,-15.74,37.05,-15.91Q37.05,-16.08,36.98,-16.63Q36.91,-17.18,36.81,-17.42Q36.72,-17.66,36.48,-18.07Q36.24,-18.48,35.93,-18.67Q35.61,-18.86,35.11,-19.01Q34.61,-19.15,33.98,-19.15Q32.4,-19.15,31.41,-17.69Q30.43,-16.22,30.43,-13.82L30.43,-4.18Q30.43,-2.69,31.1,-2.69Q32.35,-2.69,32.35,-1.63Q32.35,0,30,0L24.86,0Q22.51,0,22.51,-1.63Q22.51,-2.16,22.73,-2.42Q22.94,-2.69,23.71,-2.69Q24.48,-2.69,24.48,-4.18L24.48,-14.5L24.48,-15.22Q24.53,-15.94,24.48,-16.13Q24.43,-16.32,24.36,-16.97Q24.29,-17.62,24.09,-17.86Q23.9,-18.1,23.57,-18.48Q23.23,-18.86,22.7,-19.01Q22.17,-19.15,21.45,-19.15Q19.82,-19.15,18.84,-17.64Q17.85,-16.13,17.85,-13.68L17.85,-4.18Q17.85,-2.69,18.53,-2.69Q19.77,-2.69,19.77,-1.63Q19.77,0,17.42,0L12.29,0Q9.93,0,9.93,-1.63Q9.93,-2.16,10.15,-2.42Q10.37,-2.69,11.09,-2.69Q11.9,-2.69,11.9,-4.18L11.9,-18.72Q11.9,-20.4,11.13,-20.4Q10.41,-20.4,10.17,-20.69Q9.93,-20.98,9.93,-21.55Q9.93,-22.37,10.68,-22.82Q11.42,-23.28,12.33,-23.28L16.51,-23.28Q16.99,-23.28,17.28,-23.04Q17.57,-22.8,17.69,-22.18Q17.81,-21.55,17.85,-21.05Q17.9,-20.54,17.9,-19.54Q20.59,-23.86,24.67,-23.86Q26.73,-23.86,28.22,-22.56Q29.71,-21.26,29.95,-19.15Q31.82,-21.84,33.48,-22.85Q35.13,-23.86,37.29,-23.86Q40.08,-23.86,41.54,-21.89Q43.01,-19.92,43.01,-17.38L43.01,-4.18Q43.01,-2.69,43.68,-2.69Q44.93,-2.69,44.93,-1.63ZM56.16,-30.43Q56.21,-29.09,55.25,-28.1Q54.29,-27.12,52.89,-27.07Q51.55,-26.98,50.57,-27.94Q49.58,-28.9,49.53,-30.29Q49.49,-31.68,50.42,-32.71Q51.36,-33.74,52.7,-33.74Q54.14,-33.74,55.1,-32.81Q56.06,-31.87,56.16,-30.43M57.89,-1.63Q57.89,0,55.58,0L50.4,0Q48.05,0,48.05,-1.63Q48.05,-2.16,48.26,-2.42Q48.48,-2.69,49.25,-2.69Q50.01,-2.69,50.01,-4.18L50.01,-18.72Q50.01,-20.4,49.34,-20.4Q48.57,-20.4,48.36,-20.69Q48.14,-20.98,48.14,-21.55Q48.14,-22.37,48.89,-22.82Q49.63,-23.28,50.49,-23.28L54.67,-23.28Q55.58,-23.28,55.77,-22.63Q55.97,-21.98,55.97,-20.35Q55.97,-20.11,55.97,-19.97L55.97,-4.18Q55.97,-2.69,56.64,-2.69Q57.89,-2.69,57.89,-1.63ZM71.13,-1.82Q71.13,-1.01,70.41,-0.5Q69.69,0,68.69,0L63.55,0Q62.69,0,61.92,-0.5Q61.15,-1.01,61.15,-1.82Q61.15,-2.98,62.35,-2.98Q63.12,-2.98,63.12,-4.61L63.12,-29.86Q63.12,-31.49,62.35,-31.49Q61.1,-31.49,61.1,-32.64Q61.1,-33.55,61.85,-34.01Q62.59,-34.46,63.5,-34.46L67.68,-34.46Q69.07,-34.46,69.07,-31.63L69.07,-4.61Q69.07,-2.98,69.84,-2.98Q71.13,-2.98,71.13,-1.82ZM94.27,-14.3Q94.27,-12.91,93.74,-12.31Q93.21,-11.71,91.68,-11.71L80.4,-11.71Q80.4,-7.34,81.81,-4.92Q83.23,-2.5,85.92,-2.5Q88.89,-2.5,90.57,-5.04Q91.49,-6.43,92.45,-6.43Q93.12,-6.43,93.48,-6.02Q93.84,-5.62,93.84,-5.04Q93.84,-3.89,92.57,-2.57Q91.29,-1.25,89.09,-0.29Q87.31,0.53,84.38,0.53Q79.25,0.53,76.73,-2.86Q74.21,-6.24,74.21,-11.42Q74.21,-14.88,75.14,-17.42Q76.08,-19.97,77.69,-21.31Q79.29,-22.66,81.07,-23.28Q82.85,-23.9,84.81,-23.9Q89.04,-23.9,91.65,-21.53Q94.27,-19.15,94.27,-14.3M88.32,-15.84Q88.32,-18.1,87.38,-19.61Q86.45,-21.12,84.57,-21.12Q83.23,-21.12,82.32,-20.42Q81.41,-19.73,81.02,-18.58Q80.64,-17.42,80.52,-16.56Q80.4,-15.7,80.4,-14.78Q80.4,-14.26,80.88,-14.26L86.83,-14.26Q88.32,-14.26,88.32,-15.84Z" transform="matrix(0.84,0,0,0.84,302.5,298.6071)" style="-webkit-tap-highlight-color: rgba(0, 0, 0, 0);" stroke-width="1"></path><path fill="url(#gradient_s5xrgetkb2j5xqfs4lt8jm)" stroke="none" d="M116.007,58.623C111.007,43.623,76.007,41.623,76.007,49.623S101.507,59.123,101.507,59.123S93.007,64.12299999999999,71.507,52.623S44.007000000000005,49.623,44.007000000000005,60.123C43.507000000000005,99.62299999999999,69.007,122.62299999999999,73.007,120.62299999999999S66.507,88.12299999999999,76.007,92.62299999999999C85.507,98.62299999999999,80.007,120.12299999999999,85.507,120.12299999999999C102.007,121.12299999999999,121.007,73.62299999999999,116.007,58.62299999999999ZM55.507000000000005,61.623C50.507000000000005,67.62299999999999,45.507000000000005,58.123,51.007000000000005,53.623C58.968,48.123,71.007,57.123,71.007,57.123S60.507000000000005,55.623,55.507000000000005,61.623Z" stroke-width="0" opacity="1" transform="matrix(1,0,0,1,211,142)" style="-webkit-tap-highlight-color: rgba(0, 0, 0, 0); opacity: 1; fill-opacity: 1;" fill-opacity="1"></path></svg>